<svg xmlns="http://www.w3.org/2000/svg" viewBox="0 0 512 512">
  <!-- 案3: モダンなデザイン - 細いライン、余白を活かしたデザイン -->

  <defs>
    <linearGradient id="bgGrad3" x1="0%" y1="0%" x2="100%" y2="100%">
      <stop offset="0%" style="stop-color:#0EA5E9;stop-opacity:1" />
      <stop offset="100%" style="stop-color:#06B6D4;stop-opacity:1" />
    </linearGradient>
  </defs>

  <!-- 背景 -->
  <rect width="512" height="512" fill="url(#bgGrad3)" rx="80"/>

  <!-- 定規の外枠（細いボーダー） -->
  <rect x="90" y="210" width="332" height="92" fill="none" stroke="#ffffff" stroke-width="3" rx="10" opacity="0.6"/>

  <!-- 定規の内側 -->
  <rect x="98" y="218" width="316" height="76" fill="#ffffff" rx="6" opacity="0.95"/>

  <!-- 定規の目盛り（シアン） -->
  <g fill="#0891B2" opacity="0.8">
    <!-- 大きい目盛り -->
    <rect x="138" y="228" width="2.5" height="28" rx="1.25"/>
    <rect x="208" y="228" width="2.5" height="28" rx="1.25"/>
    <rect x="278" y="228" width="2.5" height="28" rx="1.25"/>
    <rect x="348" y="228" width="2.5" height="28" rx="1.25"/>

    <!-- 小さい目盛り -->
    <rect x="155" y="233" width="1.5" height="18" rx="0.75"/>
    <rect x="172" y="233" width="1.5" height="18" rx="0.75"/>
    <rect x="189" y="233" width="1.5" height="18" rx="0.75"/>
    <rect x="225" y="233" width="1.5" height="18" rx="0.75"/>
    <rect x="242" y="233" width="1.5" height="18" rx="0.75"/>
    <rect x="259" y="233" width="1.5" height="18" rx="0.75"/>
    <rect x="295" y="233" width="1.5" height="18" rx="0.75"/>
    <rect x="312" y="233" width="1.5" height="18" rx="0.75"/>
    <rect x="329" y="233" width="1.5" height="18" rx="0.75"/>
    <rect x="365" y="233" width="1.5" height="18" rx="0.75"/>
  </g>

  <!-- 双方向矢印（シアン、スリム） -->
  <g fill="#0891B2">
    <!-- 左矢印 -->
    <path d="M 135 268 L 108 268 L 108 256 L 135 256 L 135 247 L 93 262 L 135 277 Z"/>

    <!-- 右矢印 -->
    <path d="M 377 268 L 404 268 L 404 256 L 377 256 L 377 247 L 419 262 L 377 277 Z"/>

    <!-- 中央の線 -->
    <rect x="135" y="256" width="242" height="12" rx="3"/>
  </g>
</svg>
