<svg xmlns="http://www.w3.org/2000/svg" viewBox="0 0 512 512">
  <!-- V3案3: 抽象的な定規シンボル -->

  <!-- 背景 -->
  <rect width="512" height="512" fill="#6366F1" rx="80"/>

  <!-- 定規を抽象化 - 1本の太いバー -->
  <rect x="120" y="160" width="272" height="50" fill="#FBBF24" rx="8"/>

  <!-- 大きな目盛り3本 -->
  <g fill="#5B21B6">
    <rect x="180" y="165" width="6" height="40" rx="3"/>
    <rect x="253" y="165" width="6" height="40" rx="3"/>
    <rect x="326" y="165" width="6" height="40" rx="3"/>
  </g>

  <!-- 巨大な双方向矢印 -->
  <g fill="#ffffff">
    <!-- 左矢印 -->
    <path d="M 160 310 L 115 310 L 115 292 L 160 292 L 160 268 L 75 301 L 160 334 L 160 310 Z"/>

    <!-- 右矢印 -->
    <path d="M 352 310 L 397 310 L 397 292 L 352 292 L 352 268 L 437 301 L 352 334 L 352 310 Z"/>

    <!-- 中央の太いバー -->
    <rect x="160" y="292" width="192" height="18" rx="9"/>
  </g>
</svg>
